<svg width="25" height="29" viewBox="0 0 25 29" fill="none" xmlns="http://www.w3.org/2000/svg">
<path d="M14.4922 3.25936C15.7728 1.45926 18.2788 1.0443 20.0789 2.32491V2.32491C21.879 3.60552 22.3088 6.10909 21.0282 7.90918L20.1279 9.17479L13.5918 4.52496L14.4922 3.25936Z" stroke="#393F53"/>
<path d="M13.5918 4.52496L20.1279 9.17479L10.9145 22.1255C10.2742 23.0256 9.02553 23.2361 8.12548 22.5958L4.84879 20.2648C3.94874 19.6245 3.73818 18.3758 4.37848 17.4757L13.5918 4.52496Z" stroke="#393F53"/>
<path d="M4 19L3.35816 25.099C3.318 25.4807 3.70499 25.7634 4.0564 25.6092L10 23" stroke="#393F53" stroke-linecap="round"/>
<line x1="3.5" y1="26.5" x2="24.5" y2="26.5" stroke="#393F53" stroke-linecap="round"/>
</svg>
